<svg  id="Layer_1" data-name="Layer 1" xmlns="http://www.w3.org/2000/svg" viewBox="0 0 100 100"><title>Artboard 15</title><path d="M58.68,39.32a1.46,1.46,0,0,0,.38-.26l24-24a1.5,1.5,0,0,0-2.12-2.12l-24,24a1.47,1.47,0,0,0-.28.42C50.45,32.35,41.05,33,35,39.09L4.11,62a1.5,1.5,0,0,0-.18,2.25L32.62,93.55a1.5,1.5,0,0,0,1.07.45h.12a1.5,1.5,0,0,0,1.11-.63L57.92,61A16.16,16.16,0,0,0,62.5,49.47,15.76,15.76,0,0,0,58.68,39.32ZM33.51,90.17l-7.75-7.91a1.44,1.44,0,0,0,.3-.2l14-14a1.5,1.5,0,0,0-2.12-2.12l-14,14a1.44,1.44,0,0,0-.18.28l-6.89-7a1.41,1.41,0,0,0,.19-.13l14-14a1.5,1.5,0,0,0-2.12-2.12l-14,14a1.41,1.41,0,0,0-.11.16L7.28,63.39,36,42.11,54.44,60.56l.06,0Zm22.83-32-18-18c5.23-4.26,12.7-4.25,17.33.26a12.79,12.79,0,0,1,3.87,9.07A13.15,13.15,0,0,1,56.34,58.22Z"/><path d="M82.41,40.82a9.59,9.59,0,0,1,1,8.53c-2,5.48-8.48,8.45-14.48,6.6a1.5,1.5,0,0,0-.88,2.87,15.28,15.28,0,0,0,4.5.67c6,0,11.67-3.54,13.69-9.13a12.57,12.57,0,0,0-1.31-11.18,1.5,1.5,0,1,0-2.52,1.63Z"/><path d="M89.5,64.59a1.5,1.5,0,0,0-1.92.91,10.52,10.52,0,0,1-6.29,6.17c-5.78,2.22-12.49-.14-14.95-5.25a1.5,1.5,0,1,0-2.7,1.3c2.33,4.85,7.63,7.77,13.17,7.77a15.52,15.52,0,0,0,5.55-1,13.51,13.51,0,0,0,8-8A1.5,1.5,0,0,0,89.5,64.59Z"/><path d="M79.59,85.09a12.05,12.05,0,0,1-9.2,2.25,11.49,11.49,0,0,1-7.57-4.62,9.75,9.75,0,0,1-1.65-7.45,1.5,1.5,0,1,0-2.95-.55,12.72,12.72,0,0,0,2.15,9.72,14.5,14.5,0,0,0,9.54,5.85,15.25,15.25,0,0,0,2.44.2,15,15,0,0,0,9.06-3,1.5,1.5,0,1,0-1.82-2.38Z"/></svg>