<?xml version="1.0" encoding="UTF-8"?>
<!DOCTYPE svg PUBLIC "-//W3C//DTD SVG 1.1//EN" "http://www.w3.org/Graphics/SVG/1.1/DTD/svg11.dtd">
<!-- Creator: CorelDRAW -->
<svg xmlns="http://www.w3.org/2000/svg" xml:space="preserve" width="7.11111in" height="7.11111in" version="1.1" style="shape-rendering:geometricPrecision; text-rendering:geometricPrecision; image-rendering:optimizeQuality; fill-rule:evenodd; clip-rule:evenodd"
viewBox="0 0 7111 7111"
 xmlns:xlink="http://www.w3.org/1999/xlink">
 <defs>
  <style type="text/css">
   <![CDATA[
    .fil0 {fill:black}
   ]]>
  </style>
 </defs>
 <g id="Layer_x0020_1">
  <metadata id="CorelCorpID_0Corel-Layer"/>
  <path class="fil0" d="M6190 6003l-963 0c-67,0 -121,-54 -121,-121l0 -545c0,-67 54,-121 121,-121l963 0c67,0 121,54 121,121l0 545c0,67 -54,121 -121,121zm800 984l-6869 0c-67,0 -121,-54 -121,-121l0 -500c0,-67 54,-121 121,-121l187 0 0 -5371c0,-55 37,-103 90,-117l2359 -629c77,-20 152,38 152,117l0 1957 1293 0 0 -680c0,-66 54,-120 121,-120l2359 0c67,0 121,54 121,120l0 4723 187 0c67,0 121,54 121,121l0 500c0,67 -54,121 -121,121zm-6440 -742l1705 0 0 -3922c0,-67 54,-121 121,-121l292 0 0 -1800 -2118 564 0 5279zm1947 0l371 0 0 -1555c0,-66 54,-120 121,-120l1133 0c67,0 121,54 121,120l0 1555 371 0 0 -3802 -2117 0 0 3802zm612 0l893 0 0 -1434 -893 0 0 1434zm1747 0l1705 0 0 -4602 -2118 0 0 559 292 0c67,0 121,54 121,121l0 3922zm-4614 500l6628 0 0 -258c-2210,0 -4419,0 -6628,0l0 258zm4043 -3347l-1459 0c-67,0 -121,-54 -121,-121l0 -483c0,-67 54,-121 121,-121l1459 0c67,0 121,54 121,121l0 483c0,67 -54,121 -121,121zm-1338 -242l1217 0 0 -242 -1217 0 0 242zm1338 1109l-1459 0c-67,0 -121,-54 -121,-121l0 -483c0,-67 54,-121 121,-121l1459 0c67,0 121,54 121,121l0 483c0,67 -54,121 -121,121zm-1338 -242l1217 0 0 -242 -1217 0 0 242zm-1026 -1895l-962 0c-67,0 -121,-54 -121,-121l0 -635c0,-66 54,-121 121,-121l963 0c66,0 120,55 120,121l0 635c0,67 -54,121 -121,121zm-842 -242l722 0 0 -393 -722 0 0 393zm842 1534l-962 0c-67,0 -121,-54 -121,-121l0 -635c0,-67 54,-121 121,-121l963 0c66,0 120,54 120,121l0 635c0,67 -54,121 -121,121zm-842 -242l722 0 0 -393 -722 0 0 393zm842 1533l-962 0c-67,0 -121,-54 -121,-120l0 -635c0,-67 54,-121 121,-121l963 0c66,0 120,54 120,121l0 635c0,66 -54,120 -121,120zm-842 -241l722 0 0 -393 -722 0 0 393zm842 1533l-962 0c-67,0 -121,-54 -121,-121l0 -634c0,-67 54,-121 121,-121l963 0c66,0 120,54 120,121l0 635c0,66 -54,120 -121,120zm-842 -241l722 0 0 -394 -722 0 0 394zm5111 -3090l-963 0c-67,0 -121,-54 -121,-120l0 -546c0,-67 54,-121 121,-121l963 0c67,0 121,54 121,121l0 546c0,66 -54,120 -121,120zm-842 -241l721 0 0 -304 -721 0 0 304zm842 1352l-963 0c-67,0 -121,-54 -121,-121l0 -546c0,-67 54,-121 121,-121l963 0c67,0 121,54 121,121l0 546c0,67 -54,121 -121,121zm-842 -242l721 0 0 -304 -721 0 0 304zm842 1352l-963 0c-67,0 -121,-54 -121,-121l0 -546c0,-66 54,-120 121,-120l963 0c67,0 121,54 121,120l0 546c0,67 -54,121 -121,121zm-842 -242l721 0 0 -304 -721 0 0 304zm0 1111l721 0 0 -304 -721 -1 0 305z"/>
 </g>
</svg>
