<svg version="1.1" id="Layer_1" xmlns="http://www.w3.org/2000/svg" xmlns:xlink="http://www.w3.org/1999/xlink" x="0px" y="0px" viewBox="0 0 64 64" style="enable-background:new 0 0 64 64;" xml:space="preserve">
<style type="text/css">
	.st0{fill:#3A6289;}
	.st1{fill:#4282B7;}
	.st2{fill:#D3756E;}
	.st3{fill:#E9E9E9;}
	.st4{fill:#704D4D;}
	.st5{fill:#E2C8AC;}
	.st6{fill:#CEB195;}
</style>
<title>Objective-goal-target-project-businessobjectives-aim</title>
<path class="st0" d="M22,62V49c0-2.2-1.8-4-4-4h-1.8c-1.9,0-3.5-1.3-3.9-3.1L10,32H5l7.9-15.8c0.7-1.4,2.1-2.2,3.6-2.2H31
	c1.1,0,2,0.9,2,2v46" id="id_101" style="fill: rgb(82, 161, 222);"></path>
<rect x="12" y="25" class="st1" width="6" height="2" id="id_102"></rect>
<rect x="14" y="23" class="st1" width="2" height="6" id="id_103"></rect>
<circle class="st2" cx="39" cy="25" r="18" id="id_104" style="fill: rgb(222, 147, 82);"></circle>
<circle class="st3" cx="39" cy="25" r="12" id="id_105"></circle>
<circle class="st2" cx="39" cy="25" r="6" id="id_106" style="fill: rgb(222, 164, 82);"></circle>
<rect x="36.7" y="15" transform="matrix(0.7071 -0.7071 0.7071 0.7071 2.7452 38.6274)" class="st4" width="22.6" height="2" id="id_107"></rect>
<polygon class="st4" points="62,9 55,9 55,2 57,2 57,7 62,7 " id="id_108"></polygon>
<path class="st5" d="M46,41h-7c-1.1,0-2,0.9-2,2v15c0,1.1,0.9,2,2,2h11c1.1,0,2-0.9,2-2V47L46,41z" id="id_109"></path>
<path class="st6" d="M46,41v4c0,1.1,0.9,2,2,2h4L46,41z" id="id_110"></path>
<rect x="40" y="50" class="st6" width="2" height="2" id="id_111"></rect>
<rect x="40" y="54" class="st6" width="2" height="2" id="id_112"></rect>
<rect x="44" y="50" class="st6" width="5" height="2" id="id_113"></rect>
<rect x="44" y="54" class="st6" width="5" height="2" id="id_114"></rect>
<rect x="40" y="46" class="st6" width="2" height="2" id="id_115"></rect>
</svg>