<?xml version="1.0" encoding="UTF-8"?>
<!DOCTYPE svg PUBLIC "-//W3C//DTD SVG 1.1//EN" "http://www.w3.org/Graphics/SVG/1.1/DTD/svg11.dtd">
<!-- Creator: CorelDRAW -->
<svg xmlns="http://www.w3.org/2000/svg" xml:space="preserve" width="1.70666in" height="1.70666in" version="1.1" style="shape-rendering:geometricPrecision; text-rendering:geometricPrecision; image-rendering:optimizeQuality; fill-rule:evenodd; clip-rule:evenodd"
viewBox="0 0 1707 1707"
 xmlns:xlink="http://www.w3.org/1999/xlink">
 <defs>
  <style type="text/css">
   <![CDATA[
    .fil0 {fill:#000002}
   ]]>
  </style>
 </defs>
 <g id="Layer_x0020_1">
  <metadata id="CorelCorpID_0Corel-Layer"/>
  <g>
   <path class="fil0" d="M1167 1373c-5,0 -11,-3 -16,-7l-170 -170c-21,-21 11,-53 33,-32l153 154 314 -314c21,-21 53,11 32,32l-330 330c-4,4 -10,7 -16,7zm126 334l-1019 0c-12,0 -22,-10 -22,-23l0 -208 -207 0c-12,0 -23,-10 -23,-22l0 -1431c0,-13 11,-23 23,-23l1035 0c13,0 23,10 23,23l0 207 190 0c12,0 23,10 23,23l0 500c348,54 494,487 240,741 -66,66 -150,109 -240,123l0 67c0,13 -11,23 -23,23zm-1 -911l-45 -3c-78,0 -153,23 -217,66 -205,137 -234,429 -60,603 154,153 402,153 554,0 233,-233 90,-630 -232,-666zm-995 865l973 0 0 -39c-249,12 -460,-185 -460,-437 0,-253 211,-449 460,-437l0 -472 -973 0 0 1385zm-229 -230l184 0 0 -1178c0,-13 10,-23 22,-23l784 0 0 -185 -990 0 0 1386zm1179 191c-98,0 -192,-32 -268,-92l268 92zm1 0l-1 0 1 0zm-214 -1176l-501 0c-30,0 -30,-45 0,-45l501 0c30,0 30,45 0,45zm94 182l-689 0c-30,0 -30,-46 0,-46l689 0c30,0 30,46 0,46zm-230 181l-459 0c-30,0 -30,-45 0,-45l459 0c30,0 30,45 0,45zm-147 182l-312 0c-30,0 -30,-45 0,-45l312 0c30,0 30,45 0,45zm0 182l-312 0c-30,0 -30,-46 0,-46l312 0c30,0 30,46 0,46zm0 182l-312 0c-30,0 -30,-46 0,-46l312 0c30,0 30,46 0,46zm109 181l-421 0c-30,0 -30,-45 0,-45l421 0c30,0 30,45 0,45z"/>
  </g>
 </g>
</svg>
