<?xml version="1.0" encoding="UTF-8" standalone="no"?> <svg xmlns="http://www.w3.org/2000/svg" viewBox="0 0 64 64"><title>Relax-social-distance-home-music</title><g id="Relax-social-distance-home-music"><path d="M29.585,20.189a1,1,0,0,0-.9-.138l-6,2A1,1,0,0,0,22,23v6H20v2h3a1,1,0,0,0,1-1V23.721l4-1.334V27H26v2h3a1,1,0,0,0,1-1V21A1,1,0,0,0,29.585,20.189Z"/><path d="M36,31a1,1,0,0,0,.707-.293l4.49-4.49L44.553,27.9l.894-1.79-4-2a1,1,0,0,0-1.154.188L36,28.586l-1.293-1.293-1.414,1.414,2,2A1,1,0,0,0,36,31Z"/><path d="M31,45h3a1,1,0,0,0,1-1V37.5l3.6-2.7-1.2-1.6-4,3a1,1,0,0,0-.4.8v6H31Z"/><path d="M55.84,31.43A3.127,3.127,0,0,0,60,26.76L49,16.9V7a1,1,0,0,0-1-1H42a1,1,0,0,0-1,1V9.73L32.67,2.26a.986.986,0,0,0-1.34,0L4,26.76a3.127,3.127,0,0,0,4.16,4.67L13,27.14V38H9a3.009,3.009,0,0,0-3,3v9.18A3,3,0,0,0,7,56h6v5a1,1,0,0,0,1,1H59a1,1,0,0,0,1-1V53a5,5,0,0,0-5-5H53V45.58A5.014,5.014,0,0,0,56,41V37a5,5,0,0,0-5-5V27.14ZM43,8h4v7.1l-4-3.58ZM8,41a1,1,0,0,1,1-1H25a1,1,0,0,1,1,1v9H19a1,1,0,0,0-1,1H16a1,1,0,0,0-1-1H8ZM7,54a1,1,0,0,1,0-2h7a1,1,0,0,0,1,1h4a1,1,0,0,0,1-1h7a1,1,0,0,1,0,2Zm33-1v7H15V56H27a3,3,0,0,0,1-5.82V41a3.009,3.009,0,0,0-3-3H15V25.37L32,10.33,49,25.37V32a5,5,0,0,0-5,5v4a5.014,5.014,0,0,0,3,4.58V48H45A5,5,0,0,0,40,53Zm13.95,2.32,1.74-5.23A2.992,2.992,0,0,1,58,53v7H42V53a2.992,2.992,0,0,1,2.31-2.91l1.74,5.23A1.014,1.014,0,0,0,47,56h6A1.014,1.014,0,0,0,53.95,55.32ZM53.61,50l-1.33,4H47.72l-1.33-4ZM49,48V46h2v2Zm5-7a3.009,3.009,0,0,1-3,3H49a3.009,3.009,0,0,1-3-3V39h2a1.185,1.185,0,0,0,.32-.05l2.41-.81.56.57A1.033,1.033,0,0,0,52,39h2Zm0-4H52.41l-.7-.71a1.007,1.007,0,0,0-1.03-.24L47.84,37H46a3.009,3.009,0,0,1,3-3h2A3.009,3.009,0,0,1,54,37ZM32.66,8.25a1,1,0,0,0-1.32,0L6.83,29.93a1.127,1.127,0,0,1-1.87-.88,1.117,1.117,0,0,1,.37-.8L32,4.34,58.67,28.25a1.117,1.117,0,0,1,.37.8,1.1,1.1,0,0,1-.34.83,1.116,1.116,0,0,1-1.53.05Z"/><path d="M13.475,48.851a1,1,0,0,0,.972.044l6-3a1,1,0,0,0,0-1.79l-6-3A1,1,0,0,0,13,42v6A1,1,0,0,0,13.475,48.851ZM15,43.618,17.764,45,15,46.382Z"/></g></svg>