<svg id="Layer_1" data-name="Layer 1" xmlns="http://www.w3.org/2000/svg" viewBox="0 0 100 100"><title>Artboard 2</title><path d="M67.5,88H24V41L49.6,19,75,40.42s0,.05,0,.08v9a1.5,1.5,0,0,0,3,0V42.94l8.53,7.2a1.5,1.5,0,0,0,1.94-2.29l-37.91-32a1.5,1.5,0,0,0-1.95,0L11.52,47.75a1.5,1.5,0,0,0,2,2.28L21,43.56V89.5A1.5,1.5,0,0,0,22.5,91h45a1.5,1.5,0,0,0,0-3Z"/><path d="M92,71.33h0a13.51,13.51,0,0,1-9.84-4.12A14.65,14.65,0,0,1,78,57.87c0-.2,0-.39,0-.59a1.44,1.44,0,0,0-.1-.49,1.52,1.52,0,0,0-1.49-1.29A1.5,1.5,0,0,0,74.95,57c0,.29,0,.58,0,.88-.26,7.33-6.68,13.28-14.61,13.36l-.17,0H60a1.5,1.5,0,0,0,0,3h0A14.83,14.83,0,0,1,74.68,88.72a2,2,0,0,0,1.68,1.78h0A1.5,1.5,0,0,0,77.86,89C77.78,81,84,74.42,91.62,74.33H92a1.5,1.5,0,0,0,0-3ZM76.23,82a18,18,0,0,0-9-9.09,17.45,17.45,0,0,0,9.26-8.7A17.49,17.49,0,0,0,80,69.31a16.86,16.86,0,0,0,5,3.5A17.32,17.32,0,0,0,76.23,82Z"/><path d="M17.5,18.36h.1a8.2,8.2,0,0,1,8,8A1.78,1.78,0,0,0,27.22,28h0a1.5,1.5,0,0,0,1.48-1.52,7.85,7.85,0,0,1,7.56-8.08h.24a1.5,1.5,0,0,0,0-3h0a7.29,7.29,0,0,1-5.4-2.26A8.09,8.09,0,0,1,28.8,8c0-.12,0-.23,0-.35a1.49,1.49,0,0,0-.07-.42A1.48,1.48,0,0,0,27.25,6a1.5,1.5,0,0,0-1.48,1.52c0,.18,0,.35,0,.52a7.93,7.93,0,0,1-8.07,7.31h-.24a1.5,1.5,0,0,0,0,3Zm9.79-5.3a11,11,0,0,0,1.65,2.18A10.74,10.74,0,0,0,31,16.89,10.9,10.9,0,0,0,27.12,21a11.42,11.42,0,0,0-1.87-2.41A11.23,11.23,0,0,0,23.16,17,11,11,0,0,0,27.29,13.06Z"/><path d="M42.5,45A1.5,1.5,0,0,0,41,46.5v16A1.5,1.5,0,0,0,42.5,64h16A1.5,1.5,0,0,0,60,62.5v-16A1.5,1.5,0,0,0,58.5,45ZM57,61H44V48H57Z"/></svg>