<?xml version="1.0" encoding="UTF-8" standalone="no"?> <svg width="64" height="64" viewBox="0 0 64 64" fill="none" xmlns="http://www.w3.org/2000/svg">
<path d="M55 51H46.648L46.766 49H56C56.2652 49 56.5196 48.8946 56.7071 48.7071C56.8946 48.5196 57 48.2652 57 48V44C57 43.7348 56.8946 43.4804 56.7071 43.2929C56.5196 43.1054 56.2652 43 56 43H47.119L47.943 29H49C49.2652 29 49.5196 28.8946 49.7071 28.7071C49.8946 28.5196 50 28.2652 50 28V24C50 23.7348 49.8946 23.4804 49.7071 23.2929C49.5196 23.1054 49.2652 23 49 23H42.963C42.7923 20.5402 41.9822 18.1676 40.613 16.117L39 13.7V10.68L40.537 10.065C41.3195 12.2722 42.9281 14.0894 45.024 15.134L48.553 16.9C48.757 17.0018 48.9896 17.0309 49.2123 16.9824C49.435 16.9339 49.6345 16.8107 49.7777 16.6334C49.9209 16.456 49.9992 16.235 49.9996 16.0071C50 15.7791 49.9225 15.5579 49.78 15.38L48.904 14.28C47.4147 12.4176 46.4575 10.1866 46.134 7.824L48.371 6.929C48.5567 6.8548 48.7159 6.72662 48.8281 6.56102C48.9402 6.39541 49.0001 6.19999 49 6V2C49 1.73478 48.8946 1.48043 48.7071 1.29289C48.5196 1.10536 48.2652 1 48 1H27C26.7348 1 26.4804 1.10536 26.2929 1.29289C26.1054 1.48043 26 1.73478 26 2V9C26.0001 9.22306 26.0747 9.4397 26.212 9.61546C26.3494 9.79122 26.5416 9.91602 26.758 9.97L30 10.78V13.38C28.4988 14.1102 27.2337 15.2485 26.3494 16.6644C25.4651 18.0803 24.9975 19.7166 25 21.386V23H19.618L12.583 8.931C12.1775 8.11781 11.4691 7.4962 10.61 7.19982C9.75104 6.90343 8.81003 6.95594 7.98933 7.34605C7.16863 7.73617 6.53377 8.43273 6.22123 9.28599C5.9087 10.1393 5.94344 11.0811 6.318 11.909L11.437 23H5C4.73478 23 4.48043 23.1054 4.29289 23.2929C4.10536 23.4804 4 23.7348 4 24V28C4 28.2652 4.10536 28.5196 4.29289 28.7071C4.48043 28.8946 4.73478 29 5 29H6.057L7.767 58.066C7.84697 59.4001 8.43295 60.6535 9.40539 61.5704C10.3778 62.4873 11.6635 62.9986 13 63H59C59.2652 63 59.5196 62.8946 59.7071 62.7071C59.8946 62.5196 60 62.2652 60 62V56C59.9984 54.6744 59.4711 53.4036 58.5338 52.4662C57.5964 51.5289 56.3256 51.0016 55 51V51ZM57.816 55H36.184C36.3901 54.4171 36.7712 53.9121 37.2753 53.5541C37.7794 53.1961 38.3817 53.0026 39 53H55C55.6183 53.0026 56.2206 53.1961 56.7247 53.5541C57.2288 53.9121 57.6099 54.4171 57.816 55V55ZM42 59V61H40V57H46V61H44V59H42ZM36 57H38V61H36V57ZM48 57H50V61H48V57ZM44.645 51H40.184C40.3901 50.4171 40.7712 49.9121 41.2753 49.5541C41.7794 49.1961 42.3817 49.0026 43 49H44.763L44.645 51ZM55 47H43C41.833 47.0021 40.7034 47.4123 39.807 48.1597C38.9106 48.907 38.3039 49.9444 38.092 51.092C37.3313 51.2357 36.6148 51.5555 36 52.026V52C36.0024 50.1442 36.7406 48.3651 38.0529 47.0529C39.3651 45.7406 41.1442 45.0024 43 45H55V47ZM48 27H33.415L33 26.585V25H48V27ZM27 30V42C27 42.2652 26.8946 42.5196 26.7071 42.7071C26.5196 42.8946 26.2652 43 26 43C25.7348 43 25.4804 42.8946 25.2929 42.7071C25.1054 42.5196 25 42.2652 25 42V30H23V40C23 40.2652 22.8946 40.5196 22.7071 40.7071C22.5196 40.8946 22.2652 41 22 41C21.7348 41 21.4804 40.8946 21.2929 40.7071C21.1054 40.5196 21 40.2652 21 40V30H19V38C19 38.2652 18.8946 38.5196 18.7071 38.7071C18.5196 38.8946 18.2652 39 18 39C17.7348 39 17.4804 38.8946 17.2929 38.7071C17.1054 38.5196 17 38.2652 17 38V25H31V27C31.0001 27.2652 31.1054 27.5195 31.293 27.707L37.672 34.087C37.8823 34.2973 38.0005 34.5826 38.0005 34.88C38.0005 35.1774 37.8823 35.4627 37.672 35.673C37.4617 35.8833 37.1764 36.0015 36.879 36.0015C36.5816 36.0015 36.2963 35.8833 36.086 35.673L32.707 32.294C32.5672 32.1542 32.3891 32.0591 32.1953 32.0205C32.0014 31.9819 31.8005 32.0016 31.6178 32.0771C31.4351 32.1527 31.279 32.2807 31.169 32.4449C31.0591 32.6092 31.0002 32.8023 31 33V40C31 40.2652 30.8946 40.5196 30.7071 40.7071C30.5196 40.8946 30.2652 41 30 41C29.7348 41 29.4804 40.8946 29.2929 40.7071C29.1054 40.5196 29 40.2652 29 40V30H27ZM37 13H32V11H37V13ZM45.867 13.315C44.2334 12.4862 42.9869 11.0535 42.392 9.321L44.233 8.584C44.5115 10.2407 45.0637 11.8395 45.867 13.315V13.315ZM28 3H47V5.323L37.807 9H31.121L28 8.219V3ZM27 21.385C26.9958 20.0259 27.3919 18.6957 28.1388 17.5602C28.8857 16.4248 29.9503 15.5343 31.2 15H37.466L38.95 17.227C40.0994 18.9491 40.7898 20.9362 40.956 23H27V21.385ZM8.135 11.07C8.03192 10.8477 7.98655 10.6031 8.00309 10.3586C8.01964 10.1142 8.09755 9.87786 8.22963 9.67151C8.36172 9.46516 8.5437 9.29545 8.75876 9.17808C8.97382 9.0607 9.215 8.99946 9.46 9C9.73724 8.99907 10.0092 9.07588 10.245 9.22171C10.4808 9.36753 10.671 9.57654 10.794 9.825L17.382 23H13.64L8.135 11.07ZM6 25H15V27H6V25ZM9.763 57.948L8.06 29H15V38C15 38.4894 15.1198 38.9714 15.3488 39.4039C15.5779 39.8364 15.9092 40.2063 16.3141 40.4814C16.7189 40.7564 17.1848 40.9282 17.6713 40.9819C18.1578 41.0355 18.65 40.9693 19.105 40.789C19.216 41.1962 19.4117 41.5755 19.6792 41.9019C19.9468 42.2284 20.2803 42.4947 20.6578 42.6834C21.0353 42.8722 21.4484 42.9792 21.8701 42.9974C22.2918 43.0155 22.7126 42.9446 23.105 42.789C23.2777 43.4245 23.6548 43.9856 24.1779 44.3856C24.7011 44.7855 25.3414 45.0023 26 45.0023C26.6586 45.0023 27.2989 44.7855 27.8221 44.3856C28.3452 43.9856 28.7223 43.4245 28.895 42.789C29.2467 42.9286 29.6216 43.0002 30 43C30.7956 43 31.5587 42.6839 32.1213 42.1213C32.6839 41.5587 33 40.7956 33 40V35.414L34.672 37.086C35.2573 37.6713 36.0512 38.0002 36.879 38.0002C37.7068 38.0002 38.5007 37.6713 39.086 37.086C39.6713 36.5007 40.0002 35.7068 40.0002 34.879C40.0002 34.0512 39.6713 33.2573 39.086 32.672L35.415 29H45.94L45.116 43H43C40.6139 43.0026 38.3262 43.9517 36.639 45.639C34.9517 47.3262 34.0026 49.6139 34 52V61H13C12.1733 60.9989 11.3782 60.6826 10.7767 60.1155C10.1752 59.5484 9.81265 58.7732 9.763 57.948V57.948ZM56 61V59H54V61H52V57H58V61H56Z" fill="black"/>
</svg>
