<svg xmlns="http://www.w3.org/2000/svg" xml:space="preserve" width="512px" height="512px" version="1.1" style="shape-rendering:geometricPrecision; text-rendering:geometricPrecision; image-rendering:optimizeQuality; fill-rule:evenodd; clip-rule:evenodd" viewBox="0 0 512 512" xmlns:xlink="http://www.w3.org/1999/xlink">
 <defs>
  <style type="text/css">
   
    .fil7 {fill:#5B5E6E}
    .fil3 {fill:#707487}
    .fil5 {fill:#AFB2B9}
    .fil9 {fill:#CF4545}
    .fil6 {fill:#CFA241}
    .fil4 {fill:#D8DCE5}
    .fil8 {fill:#E2E7F4}
    .fil0 {fill:#FF5555}
    .fil1 {fill:#FFC850}
    .fil2 {fill:white}
   
  </style>
 </defs>
 <g id="Layer_x0020_1">
  <metadata id="CorelCorpID_0Corel-Layer"></metadata>
  <path class="fil0" d="M458 512l-128 0c-4,0 -7,-3 -7,-7 0,-37 -30,-67 -67,-67 -37,0 -67,30 -67,67 0,4 -3,7 -7,7l-128 0c-4,0 -7,-3 -7,-7l0 -128c0,-4 3,-7 7,-7 37,0 67,-30 67,-67 0,-38 -30,-68 -67,-68 -4,0 -7,-3 -7,-7l0 -128c0,-3 3,-7 7,-7 109,0 218,0 328,0 46,0 83,38 83,84l0 328c0,4 -3,7 -7,7z" id="id_101" style="fill: rgb(82, 168, 222);"></path>
  <g id="_475698848">
   <path class="fil1" d="M297 278c-28,0 -51,1 -82,1 -9,0 -17,-8 -17,-18 0,-34 -14,-52 -29,-70 -15,-18 -31,-37 -31,-73 0,-65 53,-118 118,-118 65,0 118,53 118,118 0,36 -16,55 -31,73 -15,18 -29,35 -29,70 0,10 -8,17 -17,17z" id="id_102" style="fill: rgb(240, 171, 53);"></path>
   <path class="fil2" d="M269 279c-1,0 -1,0 -2,0 -4,-1 -6,-5 -5,-8l16 -61c1,-4 5,-6 9,-5 4,1 6,4 5,8l-16 61c-1,3 -4,5 -7,5z" id="id_103"></path>
   <path class="fil2" d="M243 279c-3,0 -6,-2 -7,-5l-16 -61c-1,-3 1,-7 5,-8 4,-1 8,1 9,5l16 61c1,3 -1,7 -5,8 -1,0 -1,0 -2,0z" id="id_104"></path>
   <path class="fil3" d="M267 368l-22 0c-13,0 -24,-11 -24,-24l0 -9c0,-3 3,-5 5,-5 22,0 44,0 60,0 3,0 5,2 5,5l0 9c0,13 -11,24 -24,24z" id="id_105"></path>
   <path class="fil4" d="M298 340l-84 0c-11,0 -21,-9 -21,-20 0,-11 10,-21 21,-21 26,0 55,0 84,0 12,0 21,10 21,21 0,11 -9,20 -21,20z" id="id_106"></path>
   <path class="fil5" d="M199 305c4,-3 9,-6 15,-6 26,0 55,0 84,0 6,0 11,3 15,6 -4,4 -9,7 -15,7l-84 0c-6,0 -11,-3 -15,-7z" id="id_107"></path>
   <path class="fil6" d="M297 278c-28,0 -51,1 -82,1 -6,0 -11,-4 -14,-8 4,-3 8,-5 13,-5l84 0c5,0 10,2 13,5 -3,4 -8,7 -14,7z" id="id_108"></path>
   <polygon class="fil7" points="291,340 221,340 221,344 291,344 " id="id_109"></polygon>
   <path class="fil8" d="M298 309l-84 0c-11,0 -21,-9 -21,-20 0,-11 10,-21 21,-21l84 0c12,0 21,10 21,21 0,11 -9,20 -21,20z" id="id_110"></path>
   <path class="fil2" d="M345 106c-3,0 -5,-2 -5,-4 -7,-30 -30,-54 -59,-63 -3,-1 -5,-3 -4,-6 1,-3 4,-4 6,-3 33,9 59,36 67,70 0,3 -2,5 -4,6 -1,0 -1,0 -1,0z" id="id_111"></path>
  </g>
  <path class="fil9" d="M405 458c-4,0 -7,-3 -7,-7l0 -274c0,-4 3,-7 7,-7 4,0 7,3 7,7l0 274c0,4 -3,7 -7,7z" id="id_112" style="fill: rgb(255, 255, 255);"></path>
 </g>
</svg>