<?xml version="1.0" encoding="UTF-8" standalone="no"?> <svg id="Washing_Machine" data-name="Washing Machine" xmlns="http://www.w3.org/2000/svg" viewBox="0 0 48 48"><path d="M24,42A14,14,0,1,1,38,28,14.015,14.015,0,0,1,24,42Zm0-26A12,12,0,1,0,36,28,12.013,12.013,0,0,0,24,16Z"/><path d="M24,18A10,10,0,1,0,34,28,10.011,10.011,0,0,0,24,18Zm0,2a8,8,0,0,1,7.983,7.658,10.635,10.635,0,0,0-8.477.472,8.561,8.561,0,0,1-7.5.006c0-.046-.007-.09-.007-.136A8.009,8.009,0,0,1,24,20Zm0,16a8.013,8.013,0,0,1-7.608-5.536A10.646,10.646,0,0,0,19.75,31a9.794,9.794,0,0,0,4.744-1.133,8.593,8.593,0,0,1,7.3-.1A8.009,8.009,0,0,1,24,36Z"/><path d="M37,2H11A5.006,5.006,0,0,0,6,7V41a5.006,5.006,0,0,0,5,5H37a5.006,5.006,0,0,0,5-5V7A5.006,5.006,0,0,0,37,2Zm0,2a3,3,0,0,1,3,3v3H18V4ZM8,7a3,3,0,0,1,3-3h5v6H8ZM40,41a3,3,0,0,1-3,3H11a3,3,0,0,1-3-3V12H40Z"/><circle cx="12" cy="7" r="1"/><path d="M36,8H34a1,1,0,0,1,0-2h2a1,1,0,0,1,0,2Z"/><path d="M30,8H28a1,1,0,0,1,0-2h2a1,1,0,0,1,0,2Z"/></svg>