<?xml version="1.0" encoding="UTF-8" standalone="no"?> <svg xmlns="http://www.w3.org/2000/svg" viewBox="0 0 48 48"><title>Window</title><g id="Window"><path d="M43,39V6a3,3,0,0,0-3-3H8A3,3,0,0,0,5,6V39a2,2,0,0,0-2,2v2a2,2,0,0,0,2,2H43a2,2,0,0,0,2-2V41A2,2,0,0,0,43,39ZM7,6A1,1,0,0,1,8,5H40a1,1,0,0,1,1,1V39H7ZM43,43H5V41H43Z"/><path d="M38,7H10A1,1,0,0,0,9,8V36a1,1,0,0,0,1,1H38a1,1,0,0,0,1-1V8A1,1,0,0,0,38,7ZM37,9V21H25V9ZM11,9H23V21H11Zm0,26V23H23V35Zm26,0H25V23H37Z"/><path d="M14.707,14.707l2-2a1,1,0,0,0-1.414-1.414l-2,2a1,1,0,1,0,1.414,1.414Z"/><path d="M33.293,29.293l-2,2a1,1,0,1,0,1.414,1.414l2-2a1,1,0,0,0-1.414-1.414Z"/><path d="M20.707,12.293a1,1,0,0,0-1.414,0l-5,5a1,1,0,1,0,1.414,1.414l5-5A1,1,0,0,0,20.707,12.293Z"/><path d="M27.293,31.707a1,1,0,0,0,1.414,0l5-5a1,1,0,0,0-1.414-1.414l-5,5A1,1,0,0,0,27.293,31.707Z"/></g></svg>