<svg width="64" height="64" viewBox="0 0 64 64" fill="none" xmlns="http://www.w3.org/2000/svg">
<path d="M28.4601 52.13C28.3671 52.0363 28.2565 51.9619 28.1346 51.9111C28.0128 51.8603 27.8821 51.8342 27.7501 51.8342C27.618 51.8342 27.4873 51.8603 27.3655 51.9111C27.2436 51.9619 27.133 52.0363 27.0401 52.13C26.8538 52.3174 26.7493 52.5708 26.7493 52.835C26.7493 53.0992 26.8538 53.3526 27.0401 53.54L28.7701 55.27C23.0452 54.6266 17.7572 51.8993 13.9139 47.6079C10.0706 43.3164 7.94067 37.7609 7.93005 32C7.93005 31.7348 7.8247 31.4804 7.63716 31.2929C7.44962 31.1054 7.19527 31 6.93005 31C6.66484 31 6.41048 31.1054 6.22295 31.2929C6.03541 31.4804 5.93005 31.7348 5.93005 32C5.93691 38.3339 8.30446 44.4378 12.5703 49.1198C16.8362 53.8017 22.6941 56.7254 29.0001 57.32L27.0001 59.32C26.9063 59.413 26.8319 59.5236 26.7812 59.6454C26.7304 59.7673 26.7043 59.898 26.7043 60.03C26.7043 60.162 26.7304 60.2927 26.7812 60.4146C26.8319 60.5364 26.9063 60.647 27.0001 60.74C27.093 60.8337 27.2036 60.9081 27.3255 60.9589C27.4473 61.0097 27.578 61.0358 27.7101 61.0358C27.8421 61.0358 27.9728 61.0097 28.0946 60.9589C28.2165 60.9081 28.3271 60.8337 28.4201 60.74L31.8801 57.27C32.0364 57.1598 32.1579 57.0071 32.2301 56.83C32.3066 56.6479 32.3276 56.4472 32.2902 56.2532C32.2528 56.0592 32.1588 55.8806 32.0201 55.74L28.4601 52.13Z" fill="#F7931E" id="id_113"></path>
<path d="M33.6601 6.68L35.6601 4.68C35.8484 4.4917 35.9542 4.23631 35.9542 3.97C35.9542 3.7037 35.8484 3.44831 35.6601 3.26C35.4718 3.0717 35.2164 2.96591 34.9501 2.96591C34.6838 2.96591 34.4284 3.0717 34.2401 3.26L30.6501 6.87H30.5901C30.463 7.02019 30.3829 7.20456 30.3601 7.4C30.3554 7.46325 30.3554 7.52676 30.3601 7.59C30.3785 7.82787 30.4814 8.05132 30.6501 8.22L34.2301 11.79C34.3694 11.9304 34.5472 12.0264 34.741 12.0658C34.9348 12.1052 35.1359 12.0862 35.3189 12.0113C35.502 11.9363 35.6587 11.8088 35.7693 11.6448C35.8798 11.4809 35.9393 11.2878 35.9401 11.09C35.9409 10.9584 35.9156 10.8279 35.8659 10.7061C35.8161 10.5843 35.7428 10.4734 35.6501 10.38L33.9001 8.72C39.6329 9.35459 44.9308 12.0797 48.7809 16.3744C52.631 20.6691 54.7633 26.2322 54.7701 32C54.7701 32.2652 54.8755 32.5196 55.063 32.7071C55.2505 32.8946 55.5049 33 55.7701 33C56.0353 33 56.2897 32.8946 56.4772 32.7071C56.6647 32.5196 56.7701 32.2652 56.7701 32C56.7623 25.6598 54.3892 19.5507 50.115 14.8678C45.8409 10.1849 39.9732 7.26521 33.6601 6.68V6.68Z" fill="#F7931E" id="id_114"></path>
<path d="M31.35 50.59C41.8048 50.59 50.28 42.1148 50.28 31.66C50.28 21.2053 41.8048 12.73 31.35 12.73C20.8953 12.73 12.42 21.2053 12.42 31.66C12.42 42.1148 20.8953 50.59 31.35 50.59Z" fill="#EEEFEE" id="id_115"></path>
<path d="M45.3601 18C41.6588 14.3031 36.6414 12.2266 31.4101 12.2266C26.1788 12.2266 21.1614 14.3031 17.4601 18H17.4101C15.5611 19.8328 14.0931 22.0135 13.0908 24.4163C12.0885 26.8191 11.5717 29.3965 11.5701 32C11.5701 32 11.5701 32 11.5701 32C11.576 37.2157 13.6469 42.2169 17.3301 45.91C17.3301 45.91 17.3301 45.91 17.3301 45.96H17.3801C20.0662 48.6406 23.4678 50.4907 27.1778 51.2887C30.8879 52.0868 34.7493 51.799 38.3001 50.46C38.5145 50.3976 38.7019 50.2653 38.8324 50.0841C38.9629 49.9028 39.029 49.6831 39.0201 49.46C39.0196 49.2979 38.9797 49.1383 38.9038 48.995C38.828 48.8517 38.7184 48.729 38.5845 48.6375C38.4507 48.546 38.2966 48.4884 38.1356 48.4696C37.9745 48.4509 37.8113 48.4716 37.6601 48.53C35.9477 49.1724 34.1466 49.5468 32.3201 49.64V46.12C32.3201 45.8548 32.2147 45.6004 32.0272 45.4129C31.8396 45.2253 31.5853 45.12 31.3201 45.12C31.0549 45.12 30.8005 45.2253 30.613 45.4129C30.4254 45.6004 30.3201 45.8548 30.3201 46.12V49.74C26.3027 49.5182 22.4816 47.9306 19.4901 45.24L22.0401 42.69C22.1448 42.6003 22.2298 42.49 22.2898 42.366C22.3498 42.2419 22.3835 42.1068 22.3889 41.969C22.3942 41.8313 22.371 41.694 22.3207 41.5657C22.2704 41.4373 22.1942 41.3208 22.0967 41.2233C21.9993 41.1259 21.8827 41.0496 21.7544 40.9994C21.6261 40.9491 21.4887 40.9259 21.351 40.9312C21.2133 40.9365 21.0782 40.9702 20.9541 41.0303C20.83 41.0903 20.7197 41.1753 20.6301 41.28L18.0801 43.83C15.4033 40.8333 13.8299 37.0126 13.6201 33H17.2301C17.4953 33 17.7496 32.8946 17.9372 32.7071C18.1247 32.5196 18.2301 32.2652 18.2301 32C18.2301 31.7348 18.1247 31.4804 17.9372 31.2929C17.7496 31.1053 17.4953 31 17.2301 31H13.6201C13.8382 26.9837 15.4225 23.1625 18.1101 20.17L20.6601 22.72C20.8474 22.9062 21.1009 23.0108 21.3651 23.0108C21.6293 23.0108 21.8827 22.9062 22.0701 22.72C22.2563 22.5326 22.3609 22.2792 22.3609 22.015C22.3609 21.7508 22.2563 21.4974 22.0701 21.31L19.5201 18.76C22.5116 16.0694 26.3327 14.4817 30.3501 14.26V17.88C30.3501 18.1452 30.4554 18.3996 30.643 18.5871C30.8305 18.7746 31.0849 18.88 31.3501 18.88C31.6153 18.88 31.8696 18.7746 32.0572 18.5871C32.2447 18.3996 32.3501 18.1452 32.3501 17.88V14.26C36.3655 14.4821 40.1854 16.0658 43.1801 18.75L40.6301 21.31C40.4438 21.4974 40.3393 21.7508 40.3393 22.015C40.3393 22.2792 40.4438 22.5326 40.6301 22.72C40.8174 22.9062 41.0709 23.0108 41.3351 23.0108C41.5993 23.0108 41.8527 22.9062 42.0401 22.72L44.6001 20.17C47.2842 23.1647 48.8679 26.9846 49.0901 31H45.4701C45.2049 31 44.9505 31.1053 44.763 31.2929C44.5754 31.4804 44.4701 31.7348 44.4701 32C44.4701 32.2652 44.5754 32.5196 44.763 32.7071C44.9505 32.8946 45.2049 33 45.4701 33H49.0801C49.038 33.9345 48.921 34.8642 48.7301 35.78C48.6744 36.0452 48.7263 36.3217 48.8745 36.5486C49.0226 36.7755 49.2549 36.9343 49.5201 36.99C49.7853 37.0457 50.0618 36.9937 50.2887 36.8456C50.5156 36.6974 50.6744 36.4652 50.7301 36.2C51.434 32.9594 51.3112 29.5938 50.3727 26.4132C49.4343 23.2326 47.7104 20.3394 45.3601 18V18Z" fill="#575B6D" id="id_116"></path>
<path d="M31.3501 24.12C31.0849 24.12 30.8305 24.2254 30.643 24.4129C30.4555 24.6004 30.3501 24.8548 30.3501 25.12V31.59L24.4501 37.48C24.3564 37.573 24.282 37.6836 24.2312 37.8054C24.1804 37.9273 24.1543 38.058 24.1543 38.19C24.1543 38.322 24.1804 38.4527 24.2312 38.5746C24.282 38.6964 24.3564 38.807 24.4501 38.9C24.5431 38.9937 24.6537 39.0681 24.7755 39.1189C24.8974 39.1697 25.0281 39.1958 25.1601 39.1958C25.2921 39.1958 25.4228 39.1697 25.5447 39.1189C25.6665 39.0681 25.7771 38.9937 25.8701 38.9L32.0601 32.71C32.1528 32.6166 32.2261 32.5057 32.2759 32.3839C32.3256 32.2621 32.3509 32.1316 32.3501 32V25.12C32.3501 24.8548 32.2447 24.6004 32.0572 24.4129C31.8697 24.2254 31.6153 24.12 31.3501 24.12Z" fill="#575B6D" id="id_117"></path>
<path d="M58 54.79C57.5144 52.7698 56.5265 50.905 55.128 49.3684C53.7295 47.8318 51.9657 46.6732 50 46C51.1704 45.1544 52.0427 43.9596 52.4916 42.5873C52.9405 41.2149 52.9429 39.7356 52.4985 38.3618C52.0541 36.988 51.1858 35.7904 50.0182 34.9409C48.8507 34.0914 47.4439 33.6339 46 33.6339C44.5561 33.6339 43.1494 34.0914 41.9818 34.9409C40.8142 35.7904 39.9459 36.988 39.5015 38.3618C39.0572 39.7356 39.0596 41.2149 39.5085 42.5873C39.9574 43.9596 40.8297 45.1544 42 46C40.044 46.6659 38.2864 47.8124 36.8886 49.3342C35.4909 50.856 34.4976 52.7045 34 54.71C33.9505 54.8866 33.9505 55.0734 34 55.25C34.0501 55.4426 34.1501 55.6185 34.29 55.76C35.7764 57.4176 37.5963 58.7423 39.6305 59.6474C41.6646 60.5524 43.8671 61.0173 46.0935 61.0117C48.3199 61.006 50.5199 60.5299 52.5494 59.6145C54.579 58.6991 56.3921 57.3651 57.87 55.7C57.9766 55.5789 58.0522 55.4337 58.0905 55.277C58.1289 55.1203 58.1287 54.9566 58.09 54.8L58 54.79Z" fill="#ffa536" id="id_118"></path>
</svg>